HIERARCHY
ROOT Hips
{
    OFFSET 0.000000 0.000000 0.000000
    CHANNELS 6 Xposition Yposition Zposition Zrotation Xrotation Yrotation
        JOINT Chest
        {
            OFFSET -0.000000 28.502190 -0.000000
            CHANNELS 3 Zrotation Xrotation Yrotation
            JOINT Neck
            {
                OFFSET -0.000000 21.060717 0.000000
                CHANNELS 3 Zrotation Xrotation Yrotation
                JOINT Head
                {
                    OFFSET -0.000000 9.900002 0.000000
                    CHANNELS 3 Zrotation Xrotation Yrotation
                    End Site
                    {
                        OFFSET -0.000000 15.300010 0.000000
                    }
                }
            }
            JOINT LeftCollar
            {
                OFFSET -0.000000 21.060717 0.000000
                CHANNELS 3 Zrotation Xrotation Yrotation
                JOINT LeftShoulder
                {
                    OFFSET 18.000004 -0.000000 0.000000
                    CHANNELS 3 Zrotation Xrotation Yrotation
                    JOINT LeftElbow
                    {
                        OFFSET 21.585543 0.000000 0.000000
                        CHANNELS 3 Zrotation Xrotation Yrotation
                        JOINT LeftWrist
                        {
                            OFFSET 21.310946 0.000000 0.000000
                            CHANNELS 3 Zrotation Xrotation Yrotation
                            End Site
                            {
                                OFFSET 0.000000 -13.500002 0.000000
                            }
                        }
                    }
                }
            }
            JOINT RightCollar
            {
                OFFSET -0.000000 21.060717 0.000000
                CHANNELS 3 Zrotation Xrotation Yrotation
                JOINT RightShoulder
                {
                    OFFSET -18.000004 0.000000 0.000000
                    CHANNELS 3 Zrotation Xrotation Yrotation
                    JOINT RightElbow
                    {
                        OFFSET -21.585543 0.000000 0.000000
                        CHANNELS 3 Zrotation Xrotation Yrotation
                        JOINT RightWrist
                        {
                            OFFSET -21.310946 0.000000 0.000000
                            CHANNELS 3 Zrotation Xrotation Yrotation
                            End Site
                            {
                                OFFSET -0.000000 -13.500002 0.000000
                            }
                        }
                    }
                }
            }
        }
    JOINT LeftHip
    {
        OFFSET 10.800001 0.000000 0.000000
        CHANNELS 3 Zrotation Xrotation Yrotation
        JOINT LeftKnee
        {
            OFFSET -0.000000 -36.918850 0.000000
            CHANNELS 3 Zrotation Xrotation Yrotation
            JOINT LeftAnkle
            {
                OFFSET -0.000000 -34.060452 0.000000
                CHANNELS 3 Zrotation Xrotation Yrotation
                End Site
                {
                    OFFSET -0.000000 -4.500001 15.300010
                }
            }
        }
    }
    JOINT RightHip
    {
        OFFSET -10.800001 0.000000 0.000000
        CHANNELS 3 Zrotation Xrotation Yrotation
        JOINT RightKnee
        {
            OFFSET -0.000000 -36.918850 0.000000
            CHANNELS 3 Zrotation Xrotation Yrotation
            JOINT RightAnkle
            {
                OFFSET -0.000000 -34.060452 0.000000
                CHANNELS 3 Zrotation Xrotation Yrotation
                End Site
                {
                    OFFSET -0.000000 -4.500001 15.300010
                }
            }
        }
    }
}
MOTION
Frames:    8
Frame Time:    0.010000
-27.541029    79.396751    -59.653877    0.874695    1.910046    26.580383    0.989814    -1.684177    2.761068    4.837456    11.725749    -1.573941    -9.425652    -13.156384    -2.291700    -17.478645    -0.982136    6.510795    -57.783508    38.080532    -6.193760    22.392981    -16.168613    -71.417259    117.596825    15.984889    50.885014    8.439676    -1.166539    -15.339355    22.558937    64.566376    52.391586    -15.605890    -9.746055    63.629074    -94.262260    -10.654655    -46.694908    -2.975274    -7.589274    1.869832    -2.626783    19.675838    33.384129    -1.407170    -10.100790    8.245931    -8.295513    -0.163556    -6.397090    -1.879343    3.667338    -4.026761    5.650441    -4.643620    12.699316    
-27.486006    79.398659    -59.657661    0.931759    1.879910    26.645411    0.737354    -1.573753    2.727287    6.001280    11.435377    -2.329850    -10.368276    -13.022557    -2.945709    -17.219643    -0.875650    5.364449    -57.768200    38.402828    -6.208675    22.344383    -16.137325    -71.388168    117.722733    15.922127    50.779564    8.674362    -1.269690    -16.760242    22.345196    64.403244    52.726131    -15.329829    -9.480446    63.879982    -95.792122    -9.609773    -47.796902    -3.134906    -7.357749    1.722296    -2.510649    19.358652    33.426537    -1.369495    -9.996640    8.231827    -8.375297    -0.062840    -6.448235    -1.872359    3.646935    -4.096314    5.673111    -4.651714    12.719705    
-27.452591    79.383430    -59.654968    0.954007    1.901800    26.662359    0.687204    -1.622166    2.742981    5.940354    11.350534    -2.285255    -10.357329    -12.662442    -2.844545    -17.252354    -0.838995    5.415420    -57.711361    38.397949    -6.261153    22.439756    -16.233959    -71.379158    117.588898    15.957966    50.754795    8.607809    -1.278822    -16.844715    21.897121    64.642914    53.321232    -15.594539    -9.800054    63.645401    -95.254364    -9.963231    -47.490788    -3.211635    -7.312598    1.735548    -2.470964    19.255903    33.454643    -1.400012    -10.008861    8.178059    -8.408877    -0.071169    -6.465364    -1.910621    3.599557    -4.593575    5.837434    -4.508775    13.234892    
-27.424660    79.386864    -59.660065    0.980057    1.902604    26.690117    0.640937    -1.618368    2.742305    5.920541    11.351294    -2.260289    -10.335124    -12.594894    -2.814553    -17.250820    -0.804431    5.441576    -57.672817    38.420872    -6.351088    22.487646    -16.263065    -71.358292    117.589333    15.967295    50.757580    8.580048    -1.311747    -16.909246    21.673798    64.760147    53.603619    -15.703786    -9.839013    63.598587    -95.475136    -9.828650    -47.766258    -3.291529    -7.220959    1.713343    -2.412112    19.113337    33.461681    -1.392608    -9.979499    8.152052    -8.445106    -0.044616    -6.480596    -1.929162    3.580874    -4.767357    5.884446    -4.477206    13.398339    
-27.394638    79.392563    -59.666698    1.007609    1.905753    26.721828    0.591309    -1.616868    2.740716    5.891328    11.351358    -2.231245    -10.305625    -12.516054    -2.775276    -17.241713    -0.843306    5.476469    -57.684597    38.492996    -6.380610    22.594965    -16.363060    -71.338455    117.514557    15.930302    50.745266    8.562511    -1.306407    -16.974236    21.390301    64.845596    53.933132    -15.733913    -9.821753    63.585205    -95.738548    -9.704844    -48.030216    -3.379512    -7.121382    1.700328    -2.342837    18.954878    33.453728    -1.380103    -9.946483    8.124138    -8.483793    -0.018239    -6.494946    -1.951861    3.563209    -4.942558    5.929863    -4.449832    13.561818    
-27.363400    79.399780    -59.674488    1.035304    1.912627    26.757488    0.539217    -1.618698    2.737095    5.859654    11.349434    -2.198382    -10.273870    -12.430760    -2.735514    -17.238140    -0.803215    5.509597    -57.667892    38.468624    -6.447005    22.570124    -16.292515    -71.323074    117.562630    15.933064    50.750614    8.554232    -1.274618    -17.043623    21.061207    64.904015    54.310307    -15.781215    -9.826630    63.556244    -95.875595    -9.661185    -48.232491    -3.473892    -7.016943    1.697707    -2.263513    18.782274    33.425724    -1.362820    -9.909293    8.097950    -8.524195    0.005797    -6.509078    -1.977314    3.547215    -5.109746    5.972400    -4.427651    13.715705    
-27.331833    79.407852    -59.683109    1.062025    1.924514    26.797235    0.486255    -1.624724    2.730003    5.825968    11.347943    -2.164096    -10.242004    -12.348468    -2.691420    -17.225784    -0.841770    5.538654    -57.715206    38.488819    -6.451248    22.651821    -16.386303    -71.323868    117.455711    15.834218    50.706570    8.527709    -1.307862    -17.112728    20.766579    65.020309    54.671951    -15.948129    -9.973642    63.447746    -95.788834    -9.740150    -48.353546    -3.573262    -6.909717    1.703810    -2.175275    18.595678    33.375507    -1.342660    -9.867129    8.076793    -8.565909    0.025781    -6.523838    -2.003668    3.533187    -5.261049    6.011497    -4.410995    13.851321    
-27.300781    79.416237    -59.692417    1.086794    1.942689    26.841188    0.433302    -1.635557    2.718390    5.796298    11.347533    -2.125957    -10.219451    -12.274918    -2.650760    -17.213095    -0.868646    5.555656    -57.783398    38.443394    -6.422268    22.673759    -16.361200    -71.328423    117.407913    15.760066    50.697758    8.523551    -1.277302    -17.182585    20.424458    65.063858    55.033627    -15.948479    -9.911757    63.438869    -95.913712    -9.777251    -48.539909    -3.676641    -6.801143    1.712817    -2.080168    18.394119    33.306499    -1.321672    -9.818954    8.062532    -8.608885    0.040061    -6.540287    -2.028837    3.521013    -5.390961    6.047003    -4.399453    13.962480    
